<svg width="239" height="46" viewBox="0 0 239 46" fill="none" xmlns="http://www.w3.org/2000/svg">
<g filter="url(#filter0_d)">
<path d="M12.972 31.36C11.148 31.36 9.576 30.892 8.256 29.956C6.936 29.02 5.916 27.7 5.196 25.996C4.5 24.268 4.152 22.264 4.152 19.984C4.128 17.584 4.404 15.616 4.98 14.08C5.58 12.544 6.336 11.356 7.248 10.516C8.16 9.676 9.12 9.1 10.128 8.788C11.136 8.452 12.048 8.284 12.864 8.284C14.256 8.308 15.564 8.656 16.788 9.328C18.036 10 18.984 10.924 19.632 12.1L17.688 13.828L17.4 14.08L17.22 13.864C17.244 13.672 17.208 13.492 17.112 13.324C17.04 13.156 16.884 12.916 16.644 12.604C16.14 12.028 15.6 11.608 15.024 11.344C14.448 11.056 13.74 10.912 12.9 10.912C11.868 10.912 10.92 11.176 10.056 11.704C9.192 12.232 8.496 13.12 7.968 14.368C7.44 15.616 7.176 17.332 7.176 19.516C7.176 22.54 7.692 24.844 8.724 26.428C9.78 27.988 11.196 28.768 12.972 28.768C13.596 28.768 14.268 28.672 14.988 28.48C15.732 28.288 16.38 27.964 16.932 27.508V22.576H12.972V19.984H19.704V29.02C18.648 29.836 17.556 30.436 16.428 30.82C15.3 31.18 14.148 31.36 12.972 31.36ZM28.452 31.396C26.58 31.396 25.14 30.976 24.132 30.136C23.124 29.272 22.62 28.168 22.62 26.824C22.62 25.648 22.98 24.616 23.7 23.728C24.444 22.84 25.464 22.156 26.76 21.676C28.056 21.196 29.556 20.956 31.26 20.956C31.668 20.956 32.124 20.968 32.628 20.992C33.132 20.992 33.66 21.016 34.212 21.064C34.068 19.336 33.6 18.16 32.808 17.536C32.04 16.888 30.96 16.564 29.568 16.564C28.776 16.564 28.008 16.708 27.264 16.996C26.544 17.284 25.86 17.74 25.212 18.364L23.628 16.456C24.468 15.64 25.404 15.04 26.436 14.656C27.492 14.272 28.596 14.08 29.748 14.08C31.188 14.08 32.46 14.32 33.564 14.8C34.668 15.256 35.532 16.06 36.156 17.212C36.78 18.364 37.092 19.948 37.092 21.964V31H33.816V28.732C33.192 29.812 32.376 30.532 31.368 30.892C30.384 31.228 29.412 31.396 28.452 31.396ZM25.68 26.536C25.68 27.496 25.98 28.156 26.58 28.516C27.204 28.852 27.972 29.02 28.884 29.02C30.492 29.02 31.752 28.54 32.664 27.58C33.6 26.62 34.128 25.204 34.248 23.332C33.264 23.236 32.304 23.188 31.368 23.188C29.568 23.188 28.164 23.464 27.156 24.016C26.172 24.568 25.68 25.408 25.68 26.536ZM49.764 31.288C47.7 31.288 46.296 30.58 45.552 29.164C44.832 27.748 44.532 25.408 44.652 22.144L44.832 16.924H41.376V14.44H44.94L45.084 10.336L48.288 9.94L48.648 9.904L48.684 10.156C48.564 10.324 48.456 10.504 48.36 10.696C48.288 10.864 48.228 11.14 48.18 11.524L47.964 14.44H53.58V16.924H47.964L47.712 22.252C47.64 24.004 47.688 25.348 47.856 26.284C48.024 27.22 48.312 27.868 48.72 28.228C49.128 28.588 49.668 28.768 50.34 28.768C51.132 28.768 51.828 28.612 52.428 28.3C53.052 27.988 53.676 27.604 54.3 27.148L55.092 29.488C53.484 30.688 51.708 31.288 49.764 31.288ZM66.144 31.36C64.704 31.36 63.372 31.156 62.148 30.748C60.948 30.316 59.868 29.656 58.908 28.768L60.456 26.032L60.672 25.708L60.888 25.852C60.936 26.044 60.996 26.248 61.068 26.464C61.14 26.656 61.308 26.896 61.572 27.184C62.124 27.688 62.76 28.096 63.48 28.408C64.2 28.72 65.112 28.876 66.216 28.876C67.416 28.876 68.352 28.66 69.024 28.228C69.696 27.796 70.032 27.22 70.032 26.5C70.032 25.852 69.72 25.324 69.096 24.916C68.496 24.484 67.452 24.04 65.964 23.584C64.092 23.056 62.604 22.384 61.5 21.568C60.396 20.752 59.844 19.708 59.844 18.436C59.844 17.14 60.384 16.084 61.464 15.268C62.544 14.452 64.08 14.044 66.072 14.044C67.56 14.044 68.82 14.26 69.852 14.692C70.908 15.124 71.856 15.772 72.696 16.636L71.04 18.76L70.788 19.048L70.608 18.868C70.584 18.676 70.524 18.496 70.428 18.328C70.356 18.136 70.176 17.908 69.888 17.644C69.36 17.236 68.76 16.924 68.088 16.708C67.44 16.492 66.792 16.384 66.144 16.384C65.232 16.384 64.44 16.552 63.768 16.888C63.12 17.2 62.796 17.668 62.796 18.292C62.796 18.82 63.108 19.312 63.732 19.768C64.356 20.224 65.544 20.692 67.296 21.172C69.336 21.772 70.788 22.456 71.652 23.224C72.54 23.992 72.984 24.976 72.984 26.176C72.984 27.112 72.732 27.976 72.228 28.768C71.724 29.56 70.956 30.196 69.924 30.676C68.916 31.132 67.656 31.36 66.144 31.36ZM84.72 31.396C83.76 31.396 82.86 31.18 82.02 30.748C81.204 30.316 80.52 29.716 79.968 28.948L79.14 31H77.016V6.988H80.472V7.276C80.328 7.42 80.232 7.576 80.184 7.744C80.16 7.912 80.148 8.2 80.148 8.608V16.744C80.652 15.928 81.336 15.28 82.2 14.8C83.064 14.296 83.952 14.044 84.864 14.044C86.88 14.044 88.512 14.752 89.76 16.168C91.008 17.584 91.632 19.708 91.632 22.54C91.632 24.532 91.296 26.188 90.624 27.508C89.976 28.804 89.124 29.776 88.068 30.424C87.012 31.072 85.896 31.396 84.72 31.396ZM84.252 28.804C84.972 28.804 85.656 28.612 86.304 28.228C86.952 27.844 87.48 27.208 87.888 26.32C88.296 25.432 88.5 24.244 88.5 22.756C88.5 20.692 88.116 19.144 87.348 18.112C86.58 17.08 85.572 16.564 84.324 16.564C83.076 16.564 82.068 17.128 81.3 18.256C80.532 19.384 80.148 20.872 80.148 22.72C80.148 24.592 80.46 26.08 81.084 27.184C81.732 28.264 82.788 28.804 84.252 28.804ZM97.572 37.3C96.06 37.3 94.776 36.808 93.72 35.824L94.908 33.736L95.124 33.412L95.376 33.556C95.424 33.748 95.496 33.916 95.592 34.06C95.712 34.204 95.94 34.384 96.276 34.6C96.684 34.744 97.14 34.816 97.644 34.816C98.532 34.816 99.228 34.492 99.732 33.844C100.236 33.196 100.704 32.212 101.136 30.892L94.476 14.44H97.644L102.468 26.896L104.52 20.812C104.88 19.732 105.204 18.676 105.492 17.644C105.804 16.588 106.008 15.52 106.104 14.44H109.092C108.972 15.544 108.72 16.672 108.336 17.824C107.952 18.976 107.556 20.104 107.148 21.208L103.044 32.728C102.42 34.408 101.652 35.584 100.74 36.256C99.828 36.952 98.772 37.3 97.572 37.3Z" fill="#645CFF"/>
<path d="M112.872 31V8.572H119.676C122.34 8.572 124.272 9.172 125.472 10.372C126.672 11.548 127.272 13.108 127.272 15.052C127.272 15.892 127.08 16.732 126.696 17.572C126.336 18.388 125.82 19.12 125.148 19.768C124.5 20.392 123.72 20.836 122.808 21.1L127.884 31H124.572L119.748 21.28H115.968V31H112.872ZM115.968 18.688H119.964C121.404 18.688 122.46 18.364 123.132 17.716C123.804 17.044 124.14 16.168 124.14 15.088C124.14 14.056 123.804 13.18 123.132 12.46C122.46 11.716 121.404 11.344 119.964 11.344H115.968V18.688ZM138.792 31.36C136.368 31.36 134.4 30.628 132.888 29.164C131.4 27.676 130.656 25.552 130.656 22.792C130.656 20.944 130.992 19.372 131.664 18.076C132.36 16.756 133.284 15.76 134.436 15.088C135.612 14.392 136.908 14.044 138.324 14.044C139.572 14.044 140.712 14.332 141.744 14.908C142.8 15.484 143.628 16.36 144.228 17.536C144.852 18.712 145.164 20.188 145.164 21.964C145.164 22.18 145.152 22.42 145.128 22.684C145.128 22.924 145.116 23.14 145.092 23.332H133.608C133.704 25.276 134.268 26.692 135.3 27.58C136.332 28.468 137.532 28.912 138.9 28.912C139.716 28.912 140.472 28.78 141.168 28.516C141.864 28.228 142.488 27.784 143.04 27.184L144.696 28.768C143.256 30.496 141.288 31.36 138.792 31.36ZM133.716 20.992H142.104C142.104 19.576 141.744 18.46 141.024 17.644C140.304 16.828 139.344 16.42 138.144 16.42C137.064 16.42 136.104 16.792 135.264 17.536C134.424 18.256 133.908 19.408 133.716 20.992ZM157.188 31.396C155.58 31.396 154.14 31.024 152.868 30.28C151.62 29.536 150.624 28.516 149.88 27.22C149.16 25.924 148.8 24.448 148.8 22.792C148.8 21.136 149.16 19.66 149.88 18.364C150.624 17.044 151.62 16.012 152.868 15.268C154.116 14.5 155.544 14.116 157.152 14.116C158.568 14.116 159.816 14.392 160.896 14.944C162 15.496 162.888 16.252 163.56 17.212L161.724 19.12L161.508 19.372L161.292 19.156C161.292 18.964 161.256 18.784 161.184 18.616C161.112 18.424 160.932 18.184 160.644 17.896C160.14 17.44 159.588 17.128 158.988 16.96C158.412 16.768 157.74 16.672 156.972 16.672C156.108 16.672 155.292 16.912 154.524 17.392C153.756 17.872 153.132 18.568 152.652 19.48C152.196 20.368 151.968 21.424 151.968 22.648C151.968 23.848 152.196 24.904 152.652 25.816C153.132 26.728 153.78 27.448 154.596 27.976C155.412 28.48 156.324 28.732 157.332 28.732C158.124 28.732 158.88 28.576 159.6 28.264C160.32 27.928 160.98 27.412 161.58 26.716L163.344 28.732C162.504 29.644 161.556 30.316 160.5 30.748C159.444 31.18 158.34 31.396 157.188 31.396ZM168.42 31V28.552H172.596V16.924H168.636V14.44H175.692V28.552H179.508V31H168.42ZM173.964 11.236C173.388 11.236 172.896 11.032 172.488 10.624C172.08 10.216 171.876 9.736 171.876 9.184C171.876 8.608 172.068 8.128 172.452 7.744C172.86 7.336 173.364 7.132 173.964 7.132C174.516 7.132 174.996 7.336 175.404 7.744C175.836 8.152 176.052 8.632 176.052 9.184C176.052 9.736 175.836 10.216 175.404 10.624C174.996 11.032 174.516 11.236 173.964 11.236ZM185.016 37.012V14.44H188.112V17.392C188.544 16.24 189.192 15.4 190.056 14.872C190.92 14.344 191.904 14.08 193.008 14.08C194.232 14.08 195.348 14.404 196.356 15.052C197.388 15.676 198.216 16.624 198.84 17.896C199.488 19.144 199.812 20.728 199.812 22.648C199.812 24.592 199.476 26.224 198.804 27.544C198.156 28.84 197.304 29.812 196.248 30.46C195.216 31.108 194.112 31.432 192.936 31.432C191.976 31.432 191.076 31.228 190.236 30.82C189.396 30.412 188.712 29.836 188.184 29.092V37.012H185.016ZM192.288 28.84C193.032 28.84 193.728 28.66 194.376 28.3C195.048 27.916 195.588 27.28 195.996 26.392C196.428 25.48 196.644 24.232 196.644 22.648C196.644 20.8 196.284 19.348 195.564 18.292C194.868 17.236 193.884 16.684 192.612 16.636C191.34 16.588 190.272 17.068 189.408 18.076C188.568 19.084 188.148 20.788 188.148 23.188C188.196 25.084 188.58 26.5 189.3 27.436C190.02 28.372 191.016 28.84 192.288 28.84ZM210.792 31.36C208.368 31.36 206.4 30.628 204.888 29.164C203.4 27.676 202.656 25.552 202.656 22.792C202.656 20.944 202.992 19.372 203.664 18.076C204.36 16.756 205.284 15.76 206.436 15.088C207.612 14.392 208.908 14.044 210.324 14.044C211.572 14.044 212.712 14.332 213.744 14.908C214.8 15.484 215.628 16.36 216.228 17.536C216.852 18.712 217.164 20.188 217.164 21.964C217.164 22.18 217.152 22.42 217.128 22.684C217.128 22.924 217.116 23.14 217.092 23.332H205.608C205.704 25.276 206.268 26.692 207.3 27.58C208.332 28.468 209.532 28.912 210.9 28.912C211.716 28.912 212.472 28.78 213.168 28.516C213.864 28.228 214.488 27.784 215.04 27.184L216.696 28.768C215.256 30.496 213.288 31.36 210.792 31.36ZM205.716 20.992H214.104C214.104 19.576 213.744 18.46 213.024 17.644C212.304 16.828 211.344 16.42 210.144 16.42C209.064 16.42 208.104 16.792 207.264 17.536C206.424 18.256 205.908 19.408 205.716 20.992ZM228.144 31.36C226.704 31.36 225.372 31.156 224.148 30.748C222.948 30.316 221.868 29.656 220.908 28.768L222.456 26.032L222.672 25.708L222.888 25.852C222.936 26.044 222.996 26.248 223.068 26.464C223.14 26.656 223.308 26.896 223.572 27.184C224.124 27.688 224.76 28.096 225.48 28.408C226.2 28.72 227.112 28.876 228.216 28.876C229.416 28.876 230.352 28.66 231.024 28.228C231.696 27.796 232.032 27.22 232.032 26.5C232.032 25.852 231.72 25.324 231.096 24.916C230.496 24.484 229.452 24.04 227.964 23.584C226.092 23.056 224.604 22.384 223.5 21.568C222.396 20.752 221.844 19.708 221.844 18.436C221.844 17.14 222.384 16.084 223.464 15.268C224.544 14.452 226.08 14.044 228.072 14.044C229.56 14.044 230.82 14.26 231.852 14.692C232.908 15.124 233.856 15.772 234.696 16.636L233.04 18.76L232.788 19.048L232.608 18.868C232.584 18.676 232.524 18.496 232.428 18.328C232.356 18.136 232.176 17.908 231.888 17.644C231.36 17.236 230.76 16.924 230.088 16.708C229.44 16.492 228.792 16.384 228.144 16.384C227.232 16.384 226.44 16.552 225.768 16.888C225.12 17.2 224.796 17.668 224.796 18.292C224.796 18.82 225.108 19.312 225.732 19.768C226.356 20.224 227.544 20.692 229.296 21.172C231.336 21.772 232.788 22.456 233.652 23.224C234.54 23.992 234.984 24.976 234.984 26.176C234.984 27.112 234.732 27.976 234.228 28.768C233.724 29.56 232.956 30.196 231.924 30.676C230.916 31.132 229.656 31.36 228.144 31.36Z" fill="#333538"/>
</g>
<defs>
<filter id="filter0_d" x="0.150574" y="6.98801" width="238.833" height="38.312" filterUnits="userSpaceOnUse" color-interpolation-filters="sRGB">
<feFlood flood-opacity="0" result="BackgroundImageFix"/>
<feColorMatrix in="SourceAlpha" type="matrix" values="0 0 0 0 0 0 0 0 0 0 0 0 0 0 0 0 0 0 127 0"/>
<feOffset dy="4"/>
<feGaussianBlur stdDeviation="2"/>
<feColorMatrix type="matrix" values="0 0 0 0 0 0 0 0 0 0 0 0 0 0 0 0 0 0 0.25 0"/>
<feBlend mode="normal" in2="BackgroundImageFix" result="effect1_dropShadow"/>
<feBlend mode="normal" in="SourceGraphic" in2="effect1_dropShadow" result="shape"/>
</filter>
</defs>
</svg>
